<?xml version="1.0" encoding="utf-8"?>
<!-- Generator: Adobe Illustrator 19.2.1, SVG Export Plug-In . SVG Version: 6.00 Build 0)  -->
<svg version="1.1" id="layer" xmlns="http://www.w3.org/2000/svg" xmlns:xlink="http://www.w3.org/1999/xlink" x="0px" y="0px"
	 viewBox="0 0 652 652" style="enable-background:new 0 0 652 652;" xml:space="preserve">
<g>
	<path d="M21,222.8v85.5c0,27.5,17.3,53.1,39,53.2v-85.5C60,248.4,42.8,222.8,21,222.8"/>
	<path d="M78.4,275.9v85.5c21.7,0,39-25.7,39-53.2v-85.5C95.7,222.8,78.4,248.4,78.4,275.9 M110.1,231.4v76.9
		c0,20.8-10.8,39.5-24.4,44.6v-76.9C85.7,255.1,96.5,236.4,110.1,231.4"/>
	<path d="M188.4,351.3c0,4.8-0.1,7.6-0.4,8.6c-0.3,1-1,1.5-2.2,1.5h-38c-1.5,0-2.8,0-4-0.1c-1.2-0.1-2-0.4-2.6-1.1
		c-0.7-0.7-1-1.6-1-3V225.9c0-1.5,0.5-2.3,1.6-2.7c1.1-0.3,3.8-0.5,8.3-0.5c5,0,8.2,0.2,9.4,0.5c1.3,0.3,1.9,1.3,1.9,2.9v108.1
		c0,1.3,0,2.7,0.1,4.1c0.1,1.4,0.4,2.3,1.1,2.9c0.5,0.3,1.3,0.5,2.3,0.6c1,0.1,2,0.2,3.1,0.2h17.6c1.3,0,2.1,0.5,2.4,1.5
		C188.2,344.5,188.4,347.1,188.4,351.3"/>
	<path d="M218.2,359.8c-0.1,0.4-0.6,0.7-1.3,0.9c-0.7,0.2-1.8,0.3-3.3,0.4c-1.5,0.1-3.6,0.1-6.3,0.1h-5.7c-1.4,0-2.4-0.1-3.1-0.3
		c-0.7-0.2-1.1-0.5-1.2-0.9c-0.1-0.4-0.2-0.9-0.2-1.6V226.1c0-1.5,0.5-2.3,1.6-2.7c1-0.3,3.9-0.5,8.5-0.5c2.6,0,4.7,0,6.1,0.1
		c1.5,0.1,2.5,0.2,3.3,0.4c0.7,0.2,1.2,0.5,1.4,1c0.2,0.5,0.3,1.1,0.3,1.9V358C218.4,358.8,218.4,359.4,218.2,359.8"/>
	<path d="M290.7,358.7c-0.1,0.7-0.4,1.3-1,1.7c-0.6,0.4-1.6,0.7-3,0.8c-1.4,0.1-3.3,0.2-5.8,0.2c-2.6,0-4.6-0.3-5.8-0.8
		c-1.3-0.5-2.2-2-2.9-4.6c-1.6-5.7-3-10.8-4.3-15.3c-1.3-4.5-2.4-8.9-3.6-13.2c-1.1-4.3-2.3-8.8-3.6-13.6
		c-1.3-4.8-2.7-10.2-4.5-16.4c-0.3-1.1-0.6-2.3-0.9-3.7c-0.3-1.4-0.7-2.7-1.1-3.9c-0.4-1.2-0.8-2.2-1.1-3c-0.3-0.8-0.7-1.2-1.1-1.2
		c-0.7,0-1.1,0.8-1.2,2.4c-0.1,1.6-0.2,3-0.2,4.4v65.2c0,0.8-0.1,1.4-0.3,1.9c-0.2,0.5-0.6,0.8-1.3,1.1c-0.7,0.3-1.7,0.4-3.3,0.5
		c-1.5,0.1-3.5,0.1-6,0.1c-2.5,0-4.4,0-5.7-0.1c-1.3-0.1-2.3-0.2-2.9-0.5c-0.6-0.3-1-0.6-1.1-1c-0.1-0.4-0.2-1-0.2-1.8V225.5
		c0-1.3,0.4-2.1,1.3-2.4c0.9-0.3,3.5-0.4,7.8-0.4c4.2,0,7,0.4,8.2,1.1c1.2,0.7,2.2,2.5,2.9,5.3c2.2,8.2,4.7,17.3,7.4,27.4
		c2.7,10.1,5.6,20.4,8.6,31c0.3,1.1,0.6,2.2,0.9,3.4c0.3,1.2,0.8,1.8,1.5,1.8c0.7,0,1.1-0.7,1.2-2.2c0.1-1.5,0.2-2.7,0.2-3.8v-60.4
		c0-0.8,0.1-1.4,0.2-1.9c0.1-0.5,0.6-0.8,1.3-1.1c0.7-0.3,1.8-0.4,3.2-0.5c1.4-0.1,3.3-0.1,5.8-0.1c2.5,0,4.4,0,5.8,0.1
		c1.4,0.1,2.4,0.2,3.1,0.4c0.7,0.2,1.1,0.5,1.2,1c0.1,0.5,0.2,1.1,0.2,1.9v129.5C290.8,357,290.8,358,290.7,358.7"/>
	<path d="M365.1,359c0,0.3,0,0.6-0.1,0.9c-0.1,0.3-0.4,0.6-1.1,0.8c-0.7,0.2-1.7,0.4-3.2,0.5c-1.5,0.1-3.5,0.2-6.1,0.2
		c-4.5,0-7.4-0.1-8.8-0.2c-1.4-0.1-2.3-1-2.7-2.6c-1.3-5.3-2.5-10.2-3.7-14.7c-1.1-4.5-2.3-8.9-3.4-13.3c-1.1-4.4-2.2-8.8-3.3-13.2
		c-1.1-4.4-2.3-9.3-3.6-14.8c-0.3-0.9-0.7-1.3-1.4-1.1c-0.7,0.2-1.6,1.6-2.8,4.3c-1.1,2.5-1.6,5.3-1.6,8.3v43.6c0,1.6-1.1,2.6-3.2,3
		c-2.1,0.4-4.6,0.6-7.5,0.6c-2.6,0-5.1-0.2-7.2-0.5c-2.2-0.3-3.3-1.2-3.3-2.7V225.7c0-0.7,0.3-1.2,1-1.5c0.7-0.3,1.5-0.6,2.5-0.8
		c1-0.2,2.1-0.3,3.4-0.4c1.2-0.1,2.4-0.1,3.5-0.1h3.7c1.3,0,2.4,0.1,3.5,0.3c1,0.2,1.9,0.5,2.7,0.9c0.7,0.4,1.1,1,1.1,1.8v50.6
		c0,1.1,0.3,1.6,1,1.3c0.3-0.1,0.5-0.6,0.7-1.5c0.2-0.9,0.4-1.6,0.7-2.3c1.3-4.8,2.5-9,3.7-12.9c1.1-3.8,2.2-7.6,3.2-11.3
		c1-3.7,2-7.5,3.1-11.4c1.1-3.9,2.3-8.2,3.8-13c0.3-1.1,1-1.7,2.3-1.8c1.2-0.1,4.2-0.2,8.8-0.2c4.9,0,8,0.2,9.4,0.5
		c1.4,0.3,1.9,0.8,1.7,1.5c-1.7,5.3-3.2,9.9-4.5,13.9c-1.3,4-2.5,7.8-3.7,11.4c-1.2,3.6-2.4,7.4-3.7,11.2c-1.3,3.8-2.7,8.3-4.5,13.3
		c-0.9,2.5-1.4,4.7-1.4,6.5c0,0.9,0.1,1.9,0.3,2.9c0.2,1,0.6,2.4,1.1,4.3c2,6.7,3.7,12.8,5.3,18.2c1.5,5.4,3,10.7,4.5,15.9
		c1.5,5.2,3,10.7,4.6,16.4C361.4,345.3,363.1,351.8,365.1,359"/>
	<path d="M427.6,327.1c0,3-0.2,6.2-0.7,9.5c-0.5,3.3-1.3,6.1-2.5,8.3c-1.7,3-3.3,5.6-4.9,7.7c-1.5,2.1-3.2,3.8-5.1,5.1
		c-1.9,1.3-4.1,2.2-6.5,2.8c-2.4,0.6-5.4,0.9-9,0.9c-4.1,0-7.9-0.6-11.4-1.8c-3.5-1.2-6.5-3-9.1-5.3c-2.6-2.4-4.6-5.3-6-8.7
		c-1.5-3.4-2.2-7.4-2.2-11.9v-11.1c0-0.9,0.6-1.5,1.9-1.7c1.2-0.2,3.8-0.3,7.7-0.3c3.9,0,6.8,0.1,8.7,0.2c1.9,0.1,2.9,0.6,2.9,1.4
		v8.3c0,3.7,0.5,6.6,1.4,8.6c0.9,2,2.9,3.1,6,3.1c2.7,0,4.5-0.8,5.4-2.4c0.9-1.6,1.5-3.2,1.8-4.9c0.1-1.7,0.2-3.3,0.3-4.8
		c0.1-1.4,0.1-2.9,0.1-4.4c0-2.9-0.9-6-2.8-9.2c-1.8-3.2-4.2-6.6-6.9-10.2c-2.8-3.6-5.8-7.3-9-11.3c-3.2-4-6.2-8.1-9-12.4
		c-2.8-4.3-5.1-8.7-6.9-13.4c-1.9-4.6-2.8-9.4-2.8-14.5c0-1.3,0.1-2.9,0.4-4.7c0.3-1.8,0.6-3.6,1.1-5.3c0.5-1.8,1-3.5,1.6-5.1
		c0.6-1.6,1.2-3,1.9-4.2c0.7-1.2,1.6-2.5,2.8-4c1.2-1.5,2.8-2.8,4.6-4.2c1.8-1.3,4-2.4,6.6-3.4c2.6-0.9,5.5-1.4,9-1.4
		c4.2,0,8.1,0.7,11.5,2.2c3.4,1.5,6.4,3.4,8.9,5.8c2.5,2.4,4.4,5.3,5.7,8.6c1.3,3.3,2,6.7,2,10.3v9.7c0,0.7-0.7,1-2.2,1.1
		c-1.5,0.1-3.9,0.1-7.3,0.1c-3.8,0-6.7-0.1-8.6-0.2c-1.9-0.1-2.9-0.5-2.9-1.2v-9.1c0-2.8-0.8-4.9-2.3-6.5c-1.5-1.6-3.1-2.4-4.9-2.4
		c-1.8,0-3.4,0.7-4.6,2c-1.2,1.3-1.9,2.8-2.2,4.4c-0.4,3-0.6,5.7-0.6,7.9c0,4,0.9,7.7,2.8,11.2c1.9,3.5,4.2,7,7.1,10.6
		c2.9,3.6,5.9,7.2,9.2,10.8c3.3,3.6,6.3,7.4,9.1,11.4c2.9,4,5.2,8.2,7.1,12.8C426.7,316.7,427.6,321.7,427.6,327.1"/>
	<path d="M487.2,353.4c-4.8,5.3-12.1,8-21.7,8c-4.6,0-8.7-0.7-12.2-2.2c-3.5-1.5-6.5-3.5-9-6c-2.5-2.6-4.4-5.6-5.7-9
		c-1.3-3.4-1.9-7.2-1.9-11.3v-81.8c0-4.4,0.7-8.2,2.2-11.7c1.5-3.4,3.5-6.4,6-8.9c2.6-2.5,5.6-4.4,9.1-5.7c3.5-1.3,7.3-2,11.4-2
		c8.6,0,15.5,2.5,20.9,7.6c5.3,5.1,8,12,8,20.7v81.8C494.4,341.2,492,348,487.2,353.4 M473.2,255.1c0-2.8-0.5-5.5-1.6-8
		c-1.1-2.6-3.1-3.9-6-3.9c-3.1,0-5.1,1.3-6.1,3.9c-1,2.6-1.5,5.3-1.5,8v73.6c0,1.5,0,2.9,0.1,4.3c0.1,1.4,0.4,2.6,0.9,3.8
		c0.5,1.1,1.3,2.1,2.3,2.8c1,0.7,2.4,1.1,4.3,1.1c1.7,0,3.1-0.4,4.1-1.1c1-0.7,1.8-1.6,2.3-2.8c0.5-1.1,0.9-2.4,1-3.8
		c0.1-1.4,0.2-2.8,0.2-4.3V255.1z"/>
	<path d="M554.4,353.8c-5,5.1-12.1,7.6-21.4,7.6c-4.5,0-8.5-0.8-12.1-2.3c-3.6-1.5-6.6-3.5-9-6c-2.4-2.5-4.3-5.4-5.6-8.8
		c-1.3-3.4-2-6.8-2-10.4V226.1c0-1.6,0.6-2.5,1.9-2.9c1.3-0.3,4.3-0.5,9.2-0.5c4,0,6.6,0.2,8,0.6c1.4,0.4,2.1,1.3,2.1,2.8v103.4
		c0,2.6,0.4,5.2,1.3,7.5c0.9,2.4,3,3.6,6.3,3.6c3.2,0,5.3-1.2,6.2-3.5c0.9-2.3,1.4-4.9,1.4-7.6V225.9c0-1.5,0.5-2.3,1.6-2.7
		c1-0.3,3.8-0.5,8.2-0.5c5.1,0,8.3,0.2,9.5,0.6c1.2,0.4,1.9,1.2,1.9,2.4v108C562,342,559.5,348.7,554.4,353.8"/>
	<path d="M621,351.3c0,4.8-0.1,7.6-0.4,8.6c-0.3,1-1,1.5-2.2,1.5h-38c-1.4,0-2.8,0-4-0.1c-1.2-0.1-2.1-0.4-2.6-1.1
		c-0.7-0.7-1-1.6-1-3V225.9c0-1.5,0.5-2.3,1.6-2.7c1.1-0.3,3.8-0.5,8.3-0.5c5,0,8.2,0.2,9.4,0.5c1.3,0.3,1.9,1.3,1.9,2.9v108.1
		c0,1.3,0,2.7,0.1,4.1c0.1,1.4,0.4,2.3,1.1,2.9c0.5,0.3,1.3,0.5,2.3,0.6c1,0.1,2,0.2,3.1,0.2h17.6c1.3,0,2.1,0.5,2.4,1.5
		C620.9,344.5,621,347.1,621,351.3"/>
	<path d="M53.8,390.5l2.5,15.7c0.5,2.9,0.5,4,0.6,6.8h0.3c0-1.8,0.1-4.1,0.5-6.7l2.3-15.8h5.9v31h-3.7v-20.8c0-1.4,0-3,0.1-4.5h-0.3
		c-0.1,0.8-0.5,4.7-0.6,5.6l-2.7,19.7h-3.3l-2.7-19.1c-0.4-2.5-0.5-4.6-0.6-6.2h-0.4c0.1,2.2,0.3,4.9,0.3,7.1v18.3h-3.7v-31"/>
	<path d="M95.2,390.5l4.7,31H96l-0.8-5.7h-4.5l-0.7,5.7h-3.9l4.2-31 M92.6,396.4c-0.1,4-0.1,4.5-0.2,5L91.1,412h3.6l-1.5-10.8
		c-0.2-1.2-0.2-2.4-0.3-4.9H92.6z"/>
	<path d="M128.1,390.5h4l-5,15.4l5.9,15.6H129l-4.5-12.1c-0.1-0.4-0.6-2-0.8-2.4v14.5h-4v-31h4v12.3c0,1,0,1.5,0,2.3
		c0.3-1.2,0.6-2.4,0.7-2.8"/>
	<polyline points="153.2,390.5 163.2,390.5 163.2,394.4 157.2,394.4 157.2,403.5 162.6,403.5 162.6,407.3 157.2,407.3 157.2,417.6 
		163.2,417.6 163.2,421.5 153.2,421.5 	"/>
	<path d="M208.9,390.5h7.8c3.9,0,4.2,2,4.2,5.3v5.9c0,4.3-0.3,5.8-4,5.8h-4v14h-3.9 M212.8,394.3v9.5h2.5c0.9,0,1.4-0.2,1.4-1.4
		v-6.5c0-1.1-0.2-1.6-1.5-1.6H212.8z"/>
	<path d="M247.9,390.5l4.7,31h-3.9l-0.8-5.7h-4.5l-0.7,5.7h-3.9l4.2-31 M245.3,396.4c-0.1,4-0.1,4.5-0.2,5l-1.3,10.7h3.6l-1.5-10.8
		c-0.2-1.2-0.2-2.4-0.3-4.9H245.3z"/>
	<path d="M272.7,390.5h6.5c4.9,0,5.4,1.4,5.4,7.5c0,5.4-0.1,7.7-3.4,7.6v0.2c2.9,0.4,3.3,2,3.3,6.1v3.4c0,3.7,0.1,4.3,0.8,6.1h-4.2
		c-0.3-1.8-0.6-3.3-0.6-6.5v-2.2c0-1.2,0-3.6-0.5-4.6c-0.5-0.9-0.9-0.9-3.3-0.9v14.3h-4 M276.7,394.3v9.6h1.9c2,0,2.1-0.9,2.1-6.1
		c0-3.4-0.2-3.5-1.9-3.5H276.7z"/>
	<polyline points="336.2,390.5 339.6,390.5 333,421.5 329.7,421.5 	"/>
	<path d="M389.3,390.5l4.5,19.8c0.3,1.2,0.4,2.1,0.6,3.1h0.3c-0.2-1.4-0.3-2.9-0.4-4.4l-0.2-2.9l-0.2-15.6h3.7v31h-4.4l-5-23.2H388
		l0.2,2.7l0.2,2.7l0.3,17.9H385v-31"/>
	<path d="M419.5,398.9c0-2.8,0.1-4.8,1.5-6.5c1.2-1.4,3.1-2.1,5-2.1c1.7,0,3.3,0.4,4.5,1.8c1.7,1.8,1.7,4,1.7,7.8v14.7
		c0,2.3-0.1,7.3-6.6,7.3c-0.8,0-3.9,0-5.3-3c-0.7-1.4-0.7-2.9-0.7-4.4 M428.2,398.6c0-2.7,0-4.7-2.3-4.7c-0.3,0-1.7,0-2.2,1.5
		c-0.2,0.6-0.2,1.3-0.2,3.2v16.6c0,1.5,0.1,3.3,2.3,3.3c2.4,0,2.4-2,2.4-4.2L428.2,398.6z"/>
	<polyline points="451.5,390.5 464.9,390.5 464.9,394.2 460.2,394.2 460.2,421.5 456.1,421.5 456.1,394.2 451.5,394.2 	"/>
	<path d="M520.4,390.5l2,19c0.3,2.7,0.3,3.8,0.3,5.8h0.3c0-3.3,0.1-4.4,0.3-7l1.5-17.8h4l-3.5,31h-4.6l-1.7-16.8
		c-0.2-1.8-0.2-3.5-0.2-5.4h-0.4c0,1.7,0,3.9-0.1,4.9l-1.6,17.3h-4.5l-3.4-31h3.9l1.5,19.4c0.2,2.3,0.2,3.5,0.3,5.4h0.3
		c0-2.8,0-4.2,0.2-5.8l1.8-19"/>
	<path d="M556.6,390.5l4.7,31h-3.9l-0.8-5.7H552l-0.7,5.7h-3.9l4.2-31 M553.9,396.4c-0.1,4-0.1,4.5-0.2,5l-1.3,10.7h3.6l-1.5-10.8
		c-0.2-1.2-0.2-2.4-0.3-4.9H553.9z"/>
	<path d="M581.3,390.5h6.5c4.9,0,5.4,1.4,5.4,7.5c0,5.4-0.1,7.7-3.4,7.6v0.2c2.9,0.4,3.3,2,3.3,6.1v3.4c0,3.7,0.1,4.3,0.8,6.1h-4.2
		c-0.3-1.8-0.6-3.3-0.6-6.5v-2.2c0-1.2-0.1-3.6-0.5-4.6c-0.5-0.9-0.9-0.9-3.3-0.9v14.3h-4 M585.3,394.3v9.6h1.9c2,0,2.1-0.9,2.1-6.1
		c0-3.4-0.2-3.5-1.9-3.5H585.3z"/>
</g>
</svg>
